<svg xmlns="http://www.w3.org/2000/svg" viewBox="0 0 1440 320" preserveAspectRatio="none"><path fill="#F39D5B" fill-opacity="1" d="M0,192L30,208C60,224,120,256,180,261.3C240,267,300,245,360,240C420,235,480,245,540,234.7C600,224,660,192,720,165.3C780,139,840,117,900,106.7C960,96,1020,96,1080,112C1140,128,1200,160,1260,154.7C1320,149,1380,107,1410,85.3L1440,64L1440,320L1410,320C1380,320,1320,320,1260,320C1200,320,1140,320,1080,320C1020,320,960,320,900,320C840,320,780,320,720,320C660,320,600,320,540,320C480,320,420,320,360,320C300,320,240,320,180,320C120,320,60,320,30,320L0,320Z"></path></svg>